<?xml version="1.0" encoding="UTF-8" standalone="no"?>
<svg
   xmlns:dc="http://purl.org/dc/elements/1.1/"
   xmlns:cc="http://creativecommons.org/ns#"
   xmlns:rdf="http://www.w3.org/1999/02/22-rdf-syntax-ns#"
   xmlns:svg="http://www.w3.org/2000/svg"
   xmlns="http://www.w3.org/2000/svg"
   width="59.943741"
   height="61.057144"
   viewBox="0 0 15.860115 16.154702"
   version="1.1"
   id="svg8">
  <defs
     id="defs2" />
  <metadata
     id="metadata5">
    <rdf:RDF>
      <cc:Work
         rdf:about="">
        <dc:format>image/svg+xml</dc:format>
        <dc:type
           rdf:resource="http://purl.org/dc/dcmitype/StillImage" />
        <dc:title></dc:title>
      </cc:Work>
    </rdf:RDF>
  </metadata>
  <g
     id="g4488">
    <path
       style="fill:#4c5f7f;fill-opacity:1;stroke-width:0.09380656"
       d="m 2.3572295,9.7789581 c 0.3425055,1.4002129 1.6505379,2.9281569 3.0017754,3.6601959 -1.1290309,-0.0086 -2.8609485,0.787621 -3.704149,1.454394 -0.2895375,0.323554 -1.18482951,0.889261 -0.86607791,1.261155 0.70852451,-0.105528 1.44034421,-0.0227 2.15870651,-0.049 H 15.84943 C 15.969379,15.238939 15.053509,14.75888 14.402988,14.425316 13.358834,13.900414 11.86751,13.667508 10.784019,13.264533 14.399181,11.073276 14.426218,6.687084 11.979382,4.1131534 8.7864769,6.0264042 5.5769455,7.9112202 2.3572295,9.7789581 Z"
       id="path3680" />
    <path
       style="fill:#313625;fill-opacity:1;stroke-width:0.09380656"
       d="M 6.078891,7.5051598e-4 C 3.5375935,-0.04710143 1.0274896,2.1999967 1.1958059,4.8167844 1.2347033,5.641868 2.217257,6.685842 0.95987789,7.0665095 0.15213104,7.2921951 -0.27138999,8.2102008 0.19123417,8.9343289 0.47650739,9.5114571 0.94962779,9.9678911 1.251279,10.534991 5.2444889,8.1613203 9.2376988,5.7876494 13.230909,3.4139786 12.941951,2.5532231 12.447528,1.646234 11.69622,1.1236263 10.84719,0.85251226 10.149792,1.5858283 9.4905677,1.9949436 8.6357389,0.95928796 7.5002049,-0.0111226 6.078891,7.5051598e-4 Z"
       id="path3680-1-7" />
  </g>
</svg>
