<?xml version="1.0" encoding="UTF-8" standalone="no"?>
<svg
   xmlns:dc="http://purl.org/dc/elements/1.1/"
   xmlns:cc="http://creativecommons.org/ns#"
   xmlns:rdf="http://www.w3.org/1999/02/22-rdf-syntax-ns#"
   xmlns:svg="http://www.w3.org/2000/svg"
   xmlns="http://www.w3.org/2000/svg"
   width="64"
   height="64"
   viewBox="0 0 16.933334 16.933333"
   version="1.1"
   id="svg8">
  <defs
     id="defs2" />
  <metadata
     id="metadata5">
    <rdf:RDF>
      <cc:Work
         rdf:about="">
        <dc:format>image/svg+xml</dc:format>
        <dc:type
           rdf:resource="http://purl.org/dc/dcmitype/StillImage" />
        <dc:title></dc:title>
      </cc:Work>
    </rdf:RDF>
  </metadata>
  <path
     id="path3680"
     d="m 6.5946082,0.36227576 c -2.303764,-0.03508 -4.585454,1.79003994 -4.868415,4.11209874 -0.102124,0.7609152 0.07984,1.4962408 0.474163,2.1485736 -0.01908,0.81397 -1.36986606,0.8013801 -1.63300306,1.5952612 -0.284699,1.0433202 0.78290906,1.8487337 1.21563706,2.7059167 0.37499,-0.220829 0.749957,-0.44168 1.124946,-0.662509 0.395517,1.525971 0.839039,2.902447 2.215216,3.685206 -1.597528,-0.2016 -4.99209006,3.132001 -3.572161,2.64124 H 16.400142 C 16.78312,14.835393 11.629129,13.905564 11.664376,13.747118 14.69806,11.853201 15.154818,7.0241063 12.530071,4.5954802 12.944132,4.3485717 13.356429,4.0995917 13.764764,3.8455777 13.638752,3.1316927 13.017258,2.3131817 12.528055,1.6854617 11.703137,0.95161076 10.714183,1.9006797 10.006089,2.3562147 8.9747212,1.1398788 7.9840422,0.38630076 6.5946082,0.36227576 Z"
     style="fill:#003c92;fill-opacity:1;stroke-width:0.09380656" />
</svg>
