<?xml version="1.0" encoding="UTF-8" standalone="no"?>
<svg
   xmlns:dc="http://purl.org/dc/elements/1.1/"
   xmlns:cc="http://creativecommons.org/ns#"
   xmlns:rdf="http://www.w3.org/1999/02/22-rdf-syntax-ns#"
   xmlns:svg="http://www.w3.org/2000/svg"
   xmlns="http://www.w3.org/2000/svg"
   id="svg4527"
   version="1.1"
   viewBox="0 0 16.933333 16.933333"
   height="64"
   width="64">
  <defs
     id="defs4521" />
  <metadata
     id="metadata4524">
    <rdf:RDF>
      <cc:Work
         rdf:about="">
        <dc:format>image/svg+xml</dc:format>
        <dc:type
           rdf:resource="http://purl.org/dc/dcmitype/StillImage" />
        <dc:title></dc:title>
      </cc:Work>
    </rdf:RDF>
  </metadata>
  <g
     transform="translate(-3.271975,-64.62015)"
     id="layer1">
    <path
       id="path4531"
       d="m 19.486473,64.878204 c -0.628618,0.303643 -1.342301,0.505939 -2.052023,0.667899 -0.445609,0.400971 -1.08392,0.654967 -1.446225,1.109097 -0.785083,0.305452 0.01824,1.111073 -0.12642,1.066589 -0.475993,-0.159832 -0.635575,-0.224602 -0.779502,-0.02537 -0.836147,-0.05799 -0.06873,0.391206 -0.1258,0.803921 -0.36127,0.08494 -1.582991,-0.246291 -0.820031,0.31937 0.57831,0.566993 0.125605,0.852033 -0.485688,0.487505 -1.035278,-0.623469 -0.167438,1.312502 -1.202932,1.142014 -0.896599,-0.578015 0.289287,1.034419 -0.579164,0.813642 -1.389983,-0.635047 -0.580018,0.427025 -0.736954,0.820992 C 10.478663,71.865269 9.9130311,71.51192 10.306058,72.830678 9.8028103,73.541582 9.5266535,73.203852 9.17529,73.024215 8.5581166,72.697837 8.1516526,72.788397 7.4494276,72.744059 c -1.0762854,-0.08545 -2.3959204,0.466767 -2.6868447,1.344009 -0.3868886,0.877026 -0.8742635,1.760913 -0.7994204,2.756221 0.00296,1.596128 1.2602188,2.862952 2.5557711,3.619285 0.7249287,0.352933 1.4926833,0.682172 2.2951996,0.797939 0.7876468,0.144066 1.6382018,-0.131471 2.1054308,-0.807425 0.604863,-0.829263 1.063518,-1.774498 1.204157,-2.806073 -0.07325,-1.000965 -0.498949,-1.558944 -0.91161,-2.520868 4.175248,-4.029881 4.143301,-4.088428 8.018334,-8.351544 -0.02274,-0.631799 0.481047,-1.373001 0.256028,-1.897406 z M 7.0269441,77.17849 C 8.3872539,77.10356 8.723535,79.087737 7.77147,79.432156 5.6432739,79.753941 5.7242113,77.220645 7.0269441,77.17849 Z"
       style="fill:#ce7600;fill-opacity:1;stroke:#5e2d00;stroke-width:0.33738363;stroke-linecap:round;stroke-linejoin:round;stroke-miterlimit:4;stroke-dasharray:none;stroke-opacity:1" />
  </g>
</svg>
